<?xml version="1.0" standalone="no"?>
<!DOCTYPE svg PUBLIC "-//W3C//DTD SVG 20010904//EN"
 "http://www.w3.org/TR/2001/REC-SVG-20010904/DTD/svg10.dtd">
<svg version="1.0" xmlns="http://www.w3.org/2000/svg"
 width="500.000000pt" height="300.000000pt" viewBox="0 0 500.000000 300.000000"
 preserveAspectRatio="xMidYMid meet">

<g transform="translate(0.000000,300.000000) scale(0.100000,-0.100000)"
fill="#000000" stroke="none">
<path d="M3607 2990 c-16 -5 -44 -20 -63 -35 l-34 -26 -73 21 c-150 44 -378
34 -554 -25 -43 -15 -148 -59 -233 -99 -216 -102 -332 -143 -466 -166 -140
-24 -134 -24 -134 -3 0 29 -50 102 -80 118 -59 31 -140 16 -232 -43 -29 -18
-23 -19 -117 20 -48 19 -113 -12 -150 -71 -16 -27 -50 -64 -76 -82 -94 -68
-160 -174 -195 -317 -31 -124 -37 -134 -76 -126 -28 5 -38 1 -64 -24 -31 -31
-40 -80 -21 -111 5 -8 3 -31 -6 -58 -11 -31 -14 -68 -11 -121 6 -93 38 -167
105 -242 l46 -51 -59 26 c-33 15 -64 29 -70 32 -7 2 -13 34 -16 71 -2 49 -11
83 -32 124 -35 69 -88 123 -111 114 -22 -8 -14 -70 20 -169 l23 -68 -36 27
c-86 63 -92 73 -92 138 -1 118 -38 236 -76 236 -23 0 -25 -18 -16 -117 l8 -92
-69 75 c-73 79 -127 114 -176 114 -55 0 -47 -21 41 -106 59 -57 98 -86 126
-95 27 -8 61 -33 107 -79 l67 -67 -79 -8 c-129 -12 -193 -50 -126 -76 15 -6
64 -13 108 -16 73 -4 84 -3 128 21 l49 26 31 -22 c18 -13 63 -40 102 -61 l70
-38 -235 8 c-129 4 -341 8 -471 8 -272 0 -259 4 -311 -99 -47 -93 -70 -196
-72 -321 -1 -129 15 -211 58 -296 34 -69 58 -91 77 -72 10 10 5 28 -20 82 -80
174 -78 363 6 582 19 49 35 75 51 82 23 11 339 -2 577 -23 55 -5 202 -9 328
-10 175 0 227 -3 227 -12 0 -7 -8 -47 -17 -88 -26 -116 -23 -347 6 -475 13
-55 32 -121 42 -148 10 -26 19 -51 19 -54 0 -5 -912 4 -1090 11 -29 1 -35 -3
-35 -19 0 -14 9 -21 35 -26 82 -17 632 -30 1104 -27 334 2 510 0 513 -7 2 -5
32 -41 68 -79 35 -38 62 -73 60 -76 -8 -13 -94 -32 -118 -26 -13 3 -54 32 -91
65 -74 66 -146 99 -233 108 -45 5 -54 3 -60 -13 -5 -13 1 -23 22 -38 16 -12
56 -42 90 -67 33 -26 79 -56 100 -67 l40 -20 -35 -6 c-19 -3 -70 -8 -113 -11
l-79 -6 -48 45 c-91 85 -270 186 -306 172 -8 -3 -14 -13 -14 -22 0 -19 113
-127 169 -161 20 -13 29 -23 20 -23 -48 0 -195 36 -293 72 -108 40 -114 41
-241 42 -135 1 -188 -10 -200 -42 -9 -25 8 -34 102 -48 141 -23 238 -28 285
-15 38 10 55 7 143 -18 55 -17 95 -30 89 -30 -18 -1 -107 -85 -139 -131 -26
-37 -27 -42 -12 -57 14 -14 21 -13 79 14 79 37 121 73 154 130 18 29 31 42 41
39 8 -3 60 -6 116 -6 93 0 100 -1 80 -15 -12 -8 -63 -63 -113 -121 -88 -101
-104 -134 -65 -134 21 0 130 56 182 93 45 32 93 112 93 154 0 24 8 28 90 37
25 3 65 8 89 12 l45 7 -36 -44 c-63 -79 -119 -169 -116 -187 5 -22 25 -18 104
19 70 33 129 93 140 143 l7 31 9 -30 c10 -32 41 -104 73 -169 17 -34 28 -43
65 -54 25 -8 61 -19 80 -25 84 -26 171 -3 219 59 22 28 31 30 31 9 0 -9 21
-38 46 -65 55 -59 112 -80 213 -80 75 0 161 34 224 89 42 38 87 122 87 165 0
32 -45 137 -80 186 l-20 28 42 6 c22 4 42 5 43 4 1 -2 12 -34 23 -73 21 -68
39 -95 157 -244 38 -47 69 -64 77 -40 6 19 -71 243 -102 291 -16 27 -26 48
-22 48 4 0 50 -18 102 -39 l95 -39 16 -64 c22 -89 55 -150 111 -209 48 -50 75
-59 71 -23 -2 21 -67 203 -83 234 -6 11 -9 20 -8 20 2 0 44 -13 93 -28 l90
-27 40 -82 c44 -90 87 -141 152 -178 69 -41 100 -26 58 30 -12 17 -36 57 -53
91 -17 34 -43 75 -57 93 l-27 31 86 0 86 0 67 -68 c73 -74 175 -134 195 -114
19 19 -118 181 -155 183 -35 1 50 22 126 30 103 11 139 24 230 86 92 63 89 73
-22 73 -106 0 -131 -8 -186 -59 -49 -46 -83 -58 -190 -69 -58 -6 -74 -6 -61 2
67 39 146 138 146 183 0 20 -5 23 -35 23 -45 0 -102 -24 -136 -56 -23 -22 -57
-86 -73 -136 -4 -14 -16 -18 -51 -18 -52 0 -184 25 -230 44 l-30 13 40 6 c50
9 200 90 200 108 0 11 -17 13 -75 11 -108 -5 -148 -18 -193 -63 -22 -21 -43
-39 -48 -39 -4 0 -40 13 -79 29 l-71 28 48 18 c56 22 133 89 133 118 0 18 -4
19 -52 13 -86 -12 -160 -42 -196 -81 -31 -33 -36 -35 -65 -26 -18 5 -42 11
-55 13 -22 3 -22 4 12 52 19 26 36 52 38 57 2 5 143 16 313 24 723 34 1247 62
1337 71 56 6 86 23 73 44 -8 13 -129 13 -398 -1 -119 -7 -219 -10 -221 -8 -2
2 5 45 16 94 31 143 25 522 -9 612 -5 14 24 14 271 8 152 -4 291 -11 308 -14
27 -6 34 -14 54 -68 27 -73 56 -266 56 -378 0 -44 -7 -111 -16 -148 -21 -91
-21 -117 2 -117 34 0 56 96 60 268 6 226 -28 408 -91 485 l-22 29 -250 8
c-420 15 -564 23 -560 30 3 4 63 5 134 2 120 -4 136 -3 214 22 87 27 122 50
98 65 -29 18 -217 33 -276 22 -32 -6 -61 -11 -64 -11 -3 0 11 17 30 38 20 20
62 70 93 110 l57 72 67 0 c87 0 174 21 272 66 83 38 103 65 58 79 -45 15 -239
-10 -311 -40 -12 -5 0 21 36 81 72 119 141 256 166 334 30 91 45 189 31 205
-20 24 -38 6 -79 -79 -50 -100 -70 -184 -54 -225 9 -26 6 -38 -36 -111 l-46
-83 -8 54 c-17 112 -39 199 -53 214 -31 31 -55 -4 -73 -107 -13 -73 4 -141 48
-197 18 -23 31 -47 28 -54 -3 -6 -44 -63 -91 -126 l-86 -114 0 57 c0 61 -32
201 -56 248 -37 72 -77 -8 -72 -142 3 -73 8 -94 36 -148 17 -34 32 -68 32 -75
0 -12 -100 -117 -110 -117 -3 0 -6 46 -7 103 -4 136 -39 383 -69 474 -13 41
-24 80 -24 88 0 29 -53 183 -97 283 l-45 102 21 50 c41 96 16 196 -65 253 -43
30 -119 43 -167 27z m-239 -76 c93 -19 148 -42 213 -90 58 -42 170 -169 209
-237 30 -53 106 -265 97 -273 -3 -3 -20 2 -39 12 -83 43 -216 8 -293 -78 -96
-107 -125 -295 -89 -584 l6 -51 -38 -7 c-22 -4 -111 -9 -199 -12 l-160 -6 -18
41 c-32 72 -167 151 -257 151 l-40 0 0 143 c0 152 -11 276 -36 394 -22 107
-71 272 -104 354 -17 40 -29 74 -27 75 12 12 208 98 282 123 171 59 347 75
493 45z m-1694 -291 c-16 -53 -11 -98 14 -126 55 -62 284 -86 344 -38 16 14
24 33 28 72 l6 54 12 -55 c28 -121 34 -218 29 -444 -3 -149 -11 -261 -21 -316
-28 -149 -23 -140 -112 -185 -132 -67 -172 -77 -339 -82 -116 -4 -168 -2 -229
11 -200 41 -336 185 -336 356 0 78 4 87 40 82 38 -5 72 17 94 61 20 43 21 81
1 97 -12 10 -12 15 0 33 8 12 24 60 36 107 27 106 67 192 114 248 69 80 229
171 302 172 l31 0 -14 -47z m2941 -191 c-20 -62 -38 -112 -42 -112 -15 0 9
104 38 163 18 37 34 65 36 63 2 -1 -13 -53 -32 -114z m-201 -274 c5 -36 4 -48
-5 -43 -31 20 -49 122 -32 185 6 21 9 15 19 -34 6 -32 15 -81 18 -108z m-230
-298 l6 -65 -22 45 c-17 34 -23 66 -25 135 l-2 90 19 -70 c10 -38 21 -99 24
-135z m-3589 89 l30 -32 -33 19 c-18 10 -45 32 -60 48 l-27 28 30 -15 c17 -8
44 -30 60 -48z m4015 14 c-36 -14 -92 -27 -125 -29 l-60 -5 30 17 c39 23 119
42 175 42 l45 1 -65 -26z m-3841 -103 c0 -23 -1 -23 -9 -5 -5 11 -8 40 -8 65
l0 45 9 -40 c4 -22 8 -51 8 -65z m215 -150 c5 -32 4 -31 -18 15 -13 28 -26 64
-30 80 -5 25 -2 23 18 -15 13 -25 26 -61 30 -80z m-192 -55 c-27 -9 -62 -12
-94 -8 -73 9 -35 22 62 21 l75 0 -43 -13z m3618 -14 c-23 -14 -128 -31 -189
-31 -60 0 -60 12 -1 28 44 13 211 15 190 3z m-2293 -67 c-3 -3 -12 -4 -19 -1
-8 3 -5 6 6 6 11 1 17 -2 13 -5z m1377 -94 c22 -88 80 -178 134 -208 73 -41
268 -25 340 28 44 33 82 108 82 163 l0 46 58 -6 c31 -3 59 -7 61 -9 9 -8 20
-103 26 -239 6 -125 3 -179 -15 -320 -12 -93 -23 -171 -24 -173 -13 -12 -989
-51 -997 -39 -3 5 -14 45 -23 90 -12 61 -18 151 -21 352 -2 149 -8 290 -13
315 -6 25 -10 46 -9 47 2 1 279 19 342 21 l41 2 18 -70z m-899 -20 c39 -86
147 -154 246 -154 46 -1 66 5 106 31 l51 31 6 -46 c3 -24 6 -107 6 -183 l0
-139 -32 20 c-36 22 -97 26 -131 9 -12 -6 -41 -29 -63 -51 l-42 -40 10 49 c17
86 -8 191 -49 208 -10 4 -49 11 -88 15 -38 5 -93 12 -122 16 -72 9 -117 -2
-160 -39 -42 -37 -83 -118 -83 -165 l0 -32 -37 20 c-52 28 -93 34 -141 21 -43
-12 -92 -60 -92 -90 0 -9 -18 -45 -40 -78 -22 -34 -45 -82 -52 -106 l-12 -45
-190 -4 c-162 -3 -193 -2 -204 11 -21 26 -72 197 -88 303 -16 100 -16 373 0
408 5 12 38 15 194 16 143 1 200 6 242 18 104 32 126 34 436 35 l311 1 18 -40z
m1632 -12 c-3 -8 -6 -5 -6 6 -1 11 2 17 5 13 3 -3 4 -12 1 -19z m-2878 -84
c-18 -135 -7 -347 24 -466 14 -53 35 -118 46 -144 12 -26 19 -50 16 -52 -22
-23 -76 125 -101 274 -18 110 -15 311 6 422 18 91 23 70 9 -34z m1723 -176 c3
-217 0 -264 -15 -224 -4 11 -11 432 -8 471 1 6 4 6 10 0 5 -6 11 -117 13 -247z
m1165 205 c-3 -10 -5 -4 -5 12 0 17 2 24 5 18 2 -7 2 -21 0 -30z m10 -105 c-2
-18 -4 -6 -4 27 0 33 2 48 4 33 2 -15 2 -42 0 -60z m11 -208 c-4 -91 -13 -166
-28 -228 -26 -110 -36 -117 -15 -11 8 41 20 151 27 244 14 196 23 193 16 -5z
m-1728 80 c22 -7 19 -8 -15 -8 -22 -1 -58 3 -80 7 -40 9 -40 9 15 9 30 0 66
-4 80 -8z m170 -46 c18 -46 10 -107 -24 -204 -56 -158 -70 -190 -83 -190 -17
0 -17 11 8 103 20 71 20 80 6 94 -31 32 -70 -9 -48 -51 10 -18 9 -34 -4 -79
-24 -84 -39 -74 -59 41 -20 113 -26 126 -54 130 -30 5 -57 -39 -42 -67 6 -12
19 -21 29 -21 16 0 21 -13 32 -71 11 -60 10 -72 -2 -80 -24 -15 -37 -10 -60
22 -25 36 -76 172 -91 247 -10 44 -9 58 5 87 20 43 46 50 125 35 62 -11 149
-3 202 19 39 15 50 13 60 -15z m233 -160 c5 -29 24 -60 59 -100 48 -55 87
-126 101 -184 9 -35 -25 -88 -66 -104 -17 -8 -70 -16 -117 -19 -73 -5 -93 -3
-143 16 l-58 23 62 29 c34 17 69 29 79 27 23 -4 43 23 35 48 -7 23 -53 28 -61
6 -5 -13 -92 -56 -144 -71 -20 -6 -14 3 27 41 29 27 60 54 69 60 36 22 41 44
15 65 -21 17 -26 18 -45 5 -12 -8 -21 -24 -21 -40 0 -19 -12 -36 -44 -61 -24
-20 -46 -33 -48 -31 -2 2 10 25 26 52 17 26 31 53 31 59 0 19 42 88 84 138 49
60 92 88 126 85 20 -3 26 -10 33 -44z m-723 -2 c45 -27 77 -76 112 -172 7 -19
27 -51 45 -70 49 -56 29 -69 -38 -25 -30 20 -64 46 -76 57 -23 22 -49 19 -59
-7 -9 -23 15 -45 46 -43 19 1 44 -10 79 -37 28 -22 51 -41 51 -43 0 -3 -41 -2
-90 0 -80 5 -92 3 -100 -13 -22 -40 30 -70 60 -34 16 20 120 21 120 2 0 -8
-22 -24 -49 -37 -45 -21 -58 -22 -143 -15 -101 8 -123 15 -153 54 -10 14 -33
39 -49 54 -25 24 -28 31 -17 53 6 14 31 46 55 72 57 62 76 101 76 157 0 67 14
88 53 80 18 -4 52 -19 77 -33z m816 -34 c21 -22 54 -80 54 -94 0 -11 -95 98
-102 118 -6 15 -5 17 10 9 9 -5 27 -20 38 -33z m-996 -32 c0 -24 -68 -122 -78
-112 -3 3 11 30 31 59 21 30 37 59 37 65 0 7 2 12 5 12 3 0 5 -11 5 -24z
m-350 -327 c19 -10 58 -37 85 -60 46 -39 48 -41 20 -35 -26 7 -185 112 -185
123 0 7 42 -8 80 -28z m1714 10 c-8 -13 -76 -44 -119 -54 -46 -10 -18 12 51
40 66 28 78 30 68 14z m-1968 -121 l39 -41 -64 34 c-35 18 -85 53 -110 77
l-46 43 71 -36 c39 -20 88 -54 110 -77z m1354 60 c41 -16 83 -37 92 -45 29
-26 99 -163 96 -186 -5 -34 -91 -75 -183 -87 -59 -7 -94 -19 -142 -46 -73 -40
-94 -39 -124 9 -22 37 -23 53 -8 204 12 112 23 138 35 86 4 -16 15 -45 25 -65
11 -21 19 -48 19 -61 0 -34 25 -54 45 -37 20 17 19 36 -4 68 -24 35 -56 121
-48 129 6 5 41 -23 129 -103 37 -33 76 -32 84 3 10 40 -7 58 -52 56 -32 -2
-47 4 -83 35 -40 36 -43 40 -30 60 17 27 37 24 149 -20z m-442 -56 c-19 -29
-41 -51 -51 -51 -9 -1 -23 -12 -29 -26 -9 -21 -9 -29 4 -41 20 -20 58 -10 58
16 0 21 77 140 91 140 11 0 12 -17 0 -24 -4 -3 -16 -30 -25 -61 -10 -30 -22
-55 -27 -55 -5 0 -9 -13 -9 -29 0 -21 6 -32 20 -36 34 -11 52 13 45 56 -8 46
25 129 51 129 12 0 15 -6 11 -22 -3 -13 -11 -63 -17 -112 -12 -97 -19 -117
-59 -159 -65 -71 -106 -67 -207 15 -140 115 -139 112 -139 157 0 67 33 91 147
108 51 7 108 21 128 31 19 10 36 17 38 16 1 0 -12 -24 -30 -52z m1668 31 c-16
-31 -56 -70 -99 -97 -29 -18 -29 -18 -22 6 12 36 45 78 79 99 46 28 60 25 42
-8z m-336 3 c0 -7 -162 -68 -167 -63 -6 6 62 47 95 57 30 9 72 12 72 6z
m-2704 -24 c28 -17 -64 -15 -146 3 l-65 14 96 -3 c52 -2 104 -8 115 -14z
m2189 -82 c25 -36 70 -168 61 -177 -2 -2 -25 27 -50 65 -44 66 -65 108 -81
160 -7 23 -6 23 18 7 14 -9 37 -34 52 -55z m-1144 33 c-8 -15 -10 -15 -11 -2
0 17 10 32 18 25 2 -3 -1 -13 -7 -23z m2329 -3 c-28 -23 -122 -60 -148 -60
-12 1 -4 13 27 40 39 36 49 40 95 40 l51 0 -25 -20z m-2400 -66 c-16 -42 -53
-86 -90 -108 -37 -21 -35 -15 13 49 40 52 80 96 84 91 2 -2 -1 -16 -7 -32z
m1531 -134 c16 -46 16 -52 3 -35 -28 34 -74 139 -74 165 1 21 5 16 27 -25 14
-27 34 -74 44 -105z m-2193 108 c-20 -31 -96 -88 -116 -88 -22 0 20 44 77 81
54 35 58 35 39 7z m332 -8 c0 -14 -86 -106 -125 -133 -17 -12 1 13 44 61 40
45 75 82 77 82 2 0 4 -5 4 -10z m2198 -182 c25 -50 21 -59 -16 -31 -25 18 -92
135 -91 158 0 17 84 -83 107 -127z m279 60 c58 -60 20 -44 -44 18 -46 44 -51
52 -25 37 18 -9 49 -35 69 -55z m-1933 -17 c11 -12 16 -21 12 -21 -16 0 -46
22 -57 41 -9 18 -8 19 8 11 10 -6 27 -20 37 -31z m780 -16 c-9 -13 -39 -39
-67 -57 -46 -29 -62 -33 -139 -36 -49 -2 -88 0 -88 5 0 20 84 54 154 63 41 5
92 18 113 29 21 10 39 19 41 20 1 1 -5 -10 -14 -24z"/>
<path d="M1510 2243 c-51 -19 -101 -111 -107 -198 -5 -78 22 -128 87 -161 53
-28 164 -33 208 -10 144 75 81 285 -108 357 -53 20 -56 21 -80 12z"/>
</g>
</svg>
